<svg width="77" height="77" viewBox="0 0 77 77" fill="none" xmlns="http://www.w3.org/2000/svg">
<circle cx="38.5" cy="38.5" r="38.5" fill="#FF9F00"/>
<path d="M57 31.7066C57.0018 28.556 56.2158 25.456 54.7148 22.6946C53.2138 19.9331 51.0465 17.5998 48.4144 15.9114C45.7822 14.2229 42.7705 13.2341 39.659 13.0367C36.5474 12.8394 33.437 13.4398 30.6165 14.7824C27.7961 16.125 25.3572 18.1661 23.5263 20.7162C21.6954 23.2663 20.5319 26.2426 20.1438 29.3687C19.7558 32.4948 20.1559 35.6693 21.3068 38.5974C22.4578 41.5254 24.3223 44.112 26.7273 46.117V62.2992C26.7271 62.5891 26.8002 62.8741 26.9398 63.1274C27.0793 63.3806 27.2807 63.5936 27.5246 63.746C27.7686 63.8984 28.0471 63.9853 28.3336 63.9983C28.6201 64.0113 28.9052 63.95 29.1617 63.8203L38.5 59.1125L47.8404 63.831C48.0746 63.944 48.3313 64.0014 48.5909 63.9988C49.037 63.9988 49.4647 63.8197 49.7801 63.501C50.0955 63.1823 50.2727 62.75 50.2727 62.2992V46.117C52.377 44.3656 54.0714 42.1652 55.2345 39.6737C56.3977 37.1822 57.0006 34.4614 57 31.7066ZM23.3636 31.7066C23.3636 28.6813 24.2514 25.7239 25.9146 23.2084C27.5778 20.6929 29.9418 18.7324 32.7076 17.5746C35.4734 16.4169 38.5168 16.114 41.453 16.7042C44.3891 17.2944 47.0862 18.7512 49.203 20.8905C51.3199 23.0297 52.7615 25.7552 53.3455 28.7224C53.9296 31.6896 53.6298 34.7652 52.4842 37.5602C51.3385 40.3553 49.3985 42.7442 46.9093 44.425C44.4201 46.1058 41.4937 47.0029 38.5 47.0029C34.487 46.9984 30.6395 45.3854 27.8019 42.5177C24.9642 39.6501 23.3681 35.762 23.3636 31.7066ZM46.9091 59.5501L39.2505 55.6814C39.0169 55.5633 38.7592 55.5017 38.4979 55.5017C38.2366 55.5017 37.9789 55.5633 37.7453 55.6814L30.0909 59.5501V48.3562C32.6943 49.7009 35.5763 50.402 38.5 50.402C41.4237 50.402 44.3057 49.7009 46.9091 48.3562V59.5501ZM38.5 43.6037C40.8284 43.6037 43.1046 42.906 45.0406 41.5987C46.9766 40.2914 48.4855 38.4333 49.3766 36.2594C50.2676 34.0855 50.5008 31.6934 50.0465 29.3856C49.5923 27.0778 48.471 24.9579 46.8246 23.294C45.1781 21.6302 43.0804 20.4971 40.7967 20.0381C38.5131 19.579 36.146 19.8146 33.9948 20.7151C31.8436 21.6155 30.0049 23.1404 28.7113 25.0969C27.4177 27.0534 26.7273 29.3536 26.7273 31.7066C26.7306 34.8609 27.972 37.885 30.1791 40.1154C32.3862 42.3458 35.3787 43.6003 38.5 43.6037ZM38.5 23.2086C40.1632 23.2086 41.789 23.707 43.1718 24.6408C44.5547 25.5746 45.6325 26.9018 46.269 28.4546C46.9054 30.0074 47.072 31.716 46.7475 33.3645C46.423 35.0129 45.6222 36.5271 44.4461 37.7155C43.2701 38.904 41.7717 39.7134 40.1405 40.0412C38.5093 40.3691 36.8185 40.2009 35.282 39.5577C33.7454 38.9145 32.4321 37.8253 31.5081 36.4278C30.5841 35.0303 30.0909 33.3873 30.0909 31.7066C30.0909 29.4528 30.9769 27.2913 32.5539 25.6976C34.1309 24.104 36.2698 23.2086 38.5 23.2086Z" fill="white"/>
</svg>
