<svg width="77" height="77" viewBox="0 0 77 77" fill="none" xmlns="http://www.w3.org/2000/svg">
<circle cx="38.5" cy="38.5" r="38.5" fill="#FF9F00"/>
<path d="M19 58V53.5556C19 51.1981 19.9365 48.9372 21.6035 47.2702C23.2705 45.6032 25.5314 44.6667 27.8889 44.6667H36.7778C39.1353 44.6667 41.3962 45.6032 43.0632 47.2702C44.7302 48.9372 45.6667 51.1981 45.6667 53.5556V58M47.8889 18.2889C49.8009 18.7784 51.4956 19.8904 52.7059 21.4496C53.9161 23.0087 54.573 24.9263 54.573 26.9C54.573 28.8737 53.9161 30.7913 52.7059 32.3504C51.4956 33.9096 49.8009 35.0216 47.8889 35.5111M59 58V53.5556C58.9887 51.5937 58.3287 49.6907 57.1228 48.1431C55.9169 46.5956 54.2329 45.4904 52.3333 45M23.4444 26.8889C23.4444 29.2464 24.3809 31.5073 26.0479 33.1743C27.7149 34.8413 29.9759 35.7778 32.3333 35.7778C34.6908 35.7778 36.9517 34.8413 38.6187 33.1743C40.2857 31.5073 41.2222 29.2464 41.2222 26.8889C41.2222 24.5314 40.2857 22.2705 38.6187 20.6035C36.9517 18.9365 34.6908 18 32.3333 18C29.9759 18 27.7149 18.9365 26.0479 20.6035C24.3809 22.2705 23.4444 24.5314 23.4444 26.8889Z" stroke="white" stroke-width="5.33333" stroke-linecap="round" stroke-linejoin="round"/>
</svg>
